<svg xmlns="http://www.w3.org/2000/svg" width="240" height="324" fill="none" id="girl"><path fill="#fff" fill-rule="evenodd" d="M194.637 251.935a497.918 497.918 0 0 1-2.342-14.47 388.466 388.466 0 0 1-.96-6.894c-.207-1.612-.522-3.455.574-4.649 1.543-1.681 2.945-3.12 3.134-5.527.177-2.265-.588-4.734-1.067-6.933-1.004-4.611-2.254-9.164-3.635-13.675-1.403-4.583-2.941-9.122-4.502-13.653-1.459-4.237-2.862-8.511-4.762-12.576-3.607-7.713-9.708-13.425-17.249-17.239-1.875-.949-5.7-4.335-7.659-5.093-1.802-.697-1.795 1.338-3.568.572-1.417-.613-2.737-1.431-3.53-2.799-.862-1.487-3.022-3.566-3.351-5.296-.697-3.667.058-6.788-2.559-9.548-2.322-2.451-5.444-4.131-8.674-5.032-7.107-1.983-16.584-.597-20.871 6.009-2.048 3.155-2.764 6.968-5.527 9.543-2.413 2.248-1.873 3.784-4.998 4.943-.177.066-4.974-.964-5.151-.898-3.419-.732-6.686 1.317-9.823 2.506-4.676 1.772-9.128 4.079-13.31 6.82-8.434 5.528-15.657 12.706-21.612 20.829-6.004 8.19-10.663 17.369-13.98 26.963-.806 2.33-1.53 4.689-2.167 7.071-.358 1.333-.74 2.715-.304 4.08.355 1.116 1.147 1.948 2.076 2.618 1.26.908 3.787 1.498 3.738 3.324-.038 1.389-.509 2.85-.739 4.223-.273 1.634-.498 3.278-.723 4.919-1.022 7.471-1.818 14.985-2.17 22.519-.347 7.419-.634 14.99-.12 22.406.034.489.18.938.415 1.318-.22.084-.236.493.037.551l.574.122c.397.301.893.485 1.464.503.387.012.773.03 1.16.05 4.077.852 8.154 1.658 12.285 2.268a306.68 306.68 0 0 0 15.11 1.837c10.38 1.009 20.68.675 31.074.131a397.25 397.25 0 0 1 31.139-.401c10.398.271 20.793.724 31.193.909 11.62.206 23.221-.111 34.807-1.035 1.589-.127 2.572-1.391 2.258-2.969-1.877-9.457-4.004-18.85-5.685-28.347Z" clip-rule="evenodd"></path><path fill="#000" fill-rule="evenodd" d="M94.698 148.487c1.074-.047 2.17.127 3.242.233.093.009.129.153.023.175-1.918.401-3.816.949-5.7 1.506l-.807.239c-2.124.629-4.187 1.278-6.244 2.116-4.099 1.672-7.993 3.928-11.576 6.519-13.798 9.981-23.785 25.091-30.087 40.735a111.212 111.212 0 0 0-5.145 16.274c-.075.318-.401 1.133-.222 1.458.158.288.772.466 1.057.615l.964.5c1.88.969 5.01 2.562 5.325 2.718l.49.241c8.009 3.928 16.566 7.259 25.58 7.489l.07-.77c.402-4.257.93-8.536 2.08-12.662.062-.222.344-.147.37.05.641 4.885.436 9.807.212 14.714-.396 8.691-.922 17.378-1.39 26.065-.233 4.346-.536 8.689-.81 13.033-.273 4.352-.361 8.809-.986 13.126-.14.962-1.266 1.485-2.119 1.384-.944-.113-1.67-.944-1.674-1.898-.012-2.514.304-5.059.48-7.567.166-2.383.345-4.765.529-7.147.67-8.693 1.44-17.376 2.154-26.065.253-3.082.526-6.161.806-9.24-9.547-.308-18.467-3.846-26.977-7.98-.123 2.798-.42 5.591-.708 8.377-.804 7.774-1.513 15.546-2.043 23.345a476.537 476.537 0 0 0-.633 11.827 360.622 360.622 0 0 0-.251 7.757l-.03 1.481c-.023.938-.118 1.808-.908 2.491-.801.694-1.884.731-2.678 0-1.062-.979-.874-2.312-.843-3.626a353.812 353.812 0 0 1 .375-9.972c.399-7.743 1.195-15.455 2.235-23.136l.407-2.965c.758-5.512 1.59-11.15 3.286-16.459a349.5 349.5 0 0 1-1.974-.992c-1.163-.589-2.366-1.142-3.497-1.792-.897-.516-1.67-1.224-1.92-2.268-.279-1.164.147-2.436.43-3.571l.025-.1c.277-1.143.576-2.281.891-3.414a112.64 112.64 0 0 1 4.709-13.494c3.703-8.799 8.483-17.158 14.323-24.716 5.256-6.804 11.465-12.974 18.742-17.601 3.558-2.262 7.35-4.12 11.359-5.433 1.874-.614 3.913-1.148 5.876-1.367a46.38 46.38 0 0 1 3.181-.233Zm19.038-13.943c1.277-1.371 3.814.048 3.2 1.864-1.442 4.274-3.738 8.172-7.322 10.98-3.369 2.639-7.386 4.354-11.713 3.988a.259.259 0 0 1-.087-.024l.372.506c2.927 3.961 6.015 7.867 9.737 11.105 7.583 6.596 17.908 10.154 27.878 7.623 7.843-1.991 14.754-8.196 16.786-16.104a1.61 1.61 0 0 1-1.017.093c-1.626-.353-3.236-2.064-4.285-3.291a15.586 15.586 0 0 1-2.67-4.38c-1.189-2.964-1.57-6.781.053-9.652.201-.354.662-.156.702.19l.061.539c.313 2.691.703 5.294 1.972 7.748.62 1.2 1.364 2.372 2.27 3.377.485.538 1.01 1.052 1.577 1.503.553.44 1.222.757 1.718 1.262l.09.096.003-.017c.125-1.065.872-1.535 1.603-1.505.707.028 1.538.34 1.859.489l.031.014c4.933 2.369 9.477 5.457 13.753 8.883 8.843 7.086 15.468 16.348 18.679 27.255 1.575 5.354 2.479 10.87 3.434 16.36l.587 3.364c.891 5.069 1.886 10.237 3.897 14.952.52 1.219.119 2.363-1.156 2.843a308.712 308.712 0 0 1-4.792 1.751c.786 3.374 1.265 6.865 1.854 10.255 1.252 7.207 2.786 14.368 4.102 21.565.672 3.68 1.279 7.373 1.951 11.053.323 1.772.661 3.542.989 5.314.177.955.337 1.913.506 2.87l.029.159c.097.504.219 1.026.08 1.531-.158.576-.608.983-1.009 1.396-.33.34-.807.342-1.212.157l-.133-.062c-.723-.338-1.289-.675-1.545-1.491-.162-.516-.221-1.098-.327-1.63-.203-1.019-.396-2.04-.578-3.064-.365-2.049-.72-4.099-1.068-6.151l-.324-1.921c-1.114-6.622-2.171-13.283-2.706-19.975-.237-2.968-.488-5.934-.742-8.901l-.19-2.225c-.241-2.816-.535-5.703-.577-8.558l-.957.34-4.671 1.652c-1.159.41-2.633 1.249-3.88 1.096-.61-.075-1.075-.267-1.434-.616a318.81 318.81 0 0 0 1.788 18.166c.706 5.488 1.489 10.969 2.413 16.424.458 2.702.929 5.401 1.44 8.092.255 1.347.519 2.691.791 4.034.135.67.296 1.34.402 2.016.121.773-.092 1.249-.524 1.886-.355.522-1.065.791-1.64.43-.762-.478-1.159-.893-1.383-1.764-.204-.791-.328-1.617-.485-2.418-.291-1.479-.572-2.96-.844-4.442a291.103 291.103 0 0 1-1.558-9.328c-1.647-10.983-2.692-22.059-3.22-33.153a294.154 294.154 0 0 1-.295-16.43c.024-2.809.116-5.625.314-8.426.202-2.836.62-5.615.993-8.424.013-.099.153-.104.159 0 .177 3.149.454 6.294.59 9.451.129 3.012.186 6.029.289 9.043.136 3.961.324 7.925.572 11.885.45-.492 1.129-.777 1.808-.666.984-.206 2.043-.722 2.98-1.036l3.536-1.181a478.871 478.871 0 0 1 5.582-1.836c-1.668-5.612-2.81-11.308-3.785-17.086l-.435-2.599c-.861-5.116-1.79-10.234-3.349-15.188a48.59 48.59 0 0 0-7.349-14.435c-3.208-4.321-7.112-8.126-11.131-11.685-3.441-3.047-7.122-5.798-10.631-8.761.036.196.044.412.012.65-.746 5.463-3.595 10.551-7.566 14.335-7.976 7.603-19.783 9.18-29.992 5.615-9.875-3.448-18.606-11.615-21.691-21.722-.053-.172.179-.241.272-.114.17.235.343.469.515.704a.225.225 0 0 1 .152-.239c3.599-1.391 7.133-3.362 9.831-6.151a21.177 21.177 0 0 0 3.368-4.562c.434-.795.824-1.619 1.135-2.471l.079-.22c.377-1.067.692-2.155 1.479-3Z" clip-rule="evenodd"></path><path fill="#fff" fill-rule="evenodd" d="M132.798 46.281c11.996 0 27.02 13.69 31.417 19.515 3.697 4.898 3.174 30.129 3.174 45.096 0 3.13-1.414 9.055-1.928 12.049-1.881 10.972-10.079 20.174-26.304 20.174-13.211 0-23.378-4.186-33.209-14.893-2.243-2.442-13.197 6.302-15.437 3.153-5.852 0-10.744-54.693.744-71.097 11.489-16.405 29.547-13.997 41.543-13.997Z" clip-rule="evenodd"></path><path fill="#000" fill-rule="evenodd" d="M96.743 50.133c6.932-6.309 16.166-9.344 25.483-9.12 4.826.117 9.634 1.036 14.191 2.61 2.28.791 4.487 1.823 6.598 2.99.76.419 1.462.91 2.137 1.432l.168.131h.002c1.811.651 3.427 1.82 4.893 3.187 2.939-.234 5.901.03 8.742.937 3.955 1.264 7.616 3.578 10.187 6.864 2.995 3.826 3.991 8.467 3.636 13.258l-.066.814c-.351 4.233-.98 9.676-4.453 12.457a2.713 2.713 0 0 1-.857.47c2.237 3.833 4.073 8.09 5.171 12.389 4.194 16.419.97 33.543-4.073 49.369-.414 1.304-2.385 2.17-3.388.896-1.792-2.278-4.395-4.016-7.323-4.341-1.806-.201-3.604.163-5.311-.657a4.861 4.861 0 0 1-1.781-1.495 22.984 22.984 0 0 1-9.064 1.482c-5.051-.207-10.451-1.957-13.926-5.795-.558-.616-.7-1.308-.571-1.932a7.508 7.508 0 0 1 1.344-.344c4.407 2.599 9.265 4.335 14.486 4.444 3.017.063 5.959-.359 8.405-2.243.53-.408 1.016-.86 1.466-1.345 5.114-3.291 8.72-8.881 10.434-14.869 1.598-5.584 1.401-11.398.852-17.126l-.29-3.022c-.422-4.436-.814-8.886-.924-13.34l.033-.002c1.08-.07 1.088-1.761 0-1.691-2.814.182-5.606-.28-8.412-.078-.023-1.327-.119-2.648-.508-3.927-.223-.731-1.495-.876-1.63 0-.18 1.17-.246 2.335-.266 3.511-4.198-.056-8.392-.41-12.591-.264-.774-.826-1.021-2.292-1.383-3.311-.053-.15-.106-.298-.161-.448a23.962 23.962 0 0 1-1.363 4.276l-1.03.003c-5.843.028-11.804.203-17.509 1.416-.397-.304-.633-.835-.697-1.318-.413-3.14-1.004-6.196-2.051-9.188l-.149-.422a3.512 3.512 0 0 1-.039-.112c-.771 1.246-1.692 2.407-2.696 3.488a35.137 35.137 0 0 1-1.848 1.838c-.618.687-1.257 1.364-1.877 2.053.025.125.046.252.063.382.189 1.43.209 2.88.07 4.315a20.708 20.708 0 0 1-2.159 7.408l-.038.232c-.178 1.084-.432 2.204-1.026 3.02a7.73 7.73 0 0 1 1.642 2.924c.295.981-1.062 1.831-1.765 1.028a8.185 8.185 0 0 0-1.862-1.586c-.043.058-.121.087-.208.038-1.899-1.055-5.125-.736-7.023.258-2.36 1.234-3.28 3.768-3.019 6.336.252 2.454 1.325 5.322 3.406 6.579.955.577 1.698.626 2.713.349.324-.088.726-.358.898-.492l.17-.137c.665-.525 1.284-.885 2.069-.899.803-.25 1.609.097 1.916.939l.019.054c.144.429.406.968.349 1.624-.059.701-.381 1.34-.86 1.853a4.285 4.285 0 0 1-.262.26c8.26 8.947 9.321 22.887 5.085 34.063-.184.491-.38.975-.585 1.455-.708 1.644-3.433 1.134-3.78-.495a36.444 36.444 0 0 0-1.129-4.098l-.113-.326c-.251-.718-.486-1.443-.739-2.162l-.026-.082-.031-.112-.429.936-1.304 2.826c-.61 1.319-2.548.602-2.62-.669l-.002-.043a22.534 22.534 0 0 0-.894-5.745l-.17.212c-2.542 3.145-5.526 6.092-9.62 6.818-1.026.181-2.188-.892-1.483-1.93.292-.429.573-.869.84-1.315a8.585 8.585 0 0 1-.65-.334c-1.552-.872-2.845-2.115-3.914-3.525-2.267-2.988-3.078-6.75-3.277-10.432-.211-3.891.131-7.993 1.194-11.747.46-1.623 1.083-3.181 1.804-4.692-.05-.135-.1-.27-.148-.406a61.622 61.622 0 0 1-1.946-6.628 64.65 64.65 0 0 1-1.713-13.85c-.127-8.333 1.31-16.8 4.337-24.571 3.127-8.014 7.83-15.735 14.23-21.558Zm-3.893 72.861c-.574-.904-2.011-.089-1.478.821l.02.033c.91 1.435 1.337 3.067 1.861 4.667.336 1.029 1.97.589 1.63-.451l-.114-.347c-.52-1.622-.996-3.271-1.92-4.723Zm5-17.263.381-.185c1.204-.574 2.258-.965 3.679-.464 1.904.67 3.943 2.803 2.656 4.872-.473.763-1.314 1.067-2.18.887-1.46-.302-1.837-1.618-2.578-2.698l-.128-.183c-.452-.653-1.023-1.556-1.775-1.813-.171-.059-.243-.325-.055-.416Zm1.073-43.93.123-.111c.818-.723-.382-1.915-1.196-1.196-3.722 3.29-5.015 8.441-6.946 12.83-.433.988 1.023 1.85 1.46.855 1.842-4.19 3.064-9.2 6.56-12.379Zm44.734-1.44c-.972-.439-1.823.977-.888 1.443l.035.017c3.287 1.486 4.686 4.85 6.025 7.974.427.998 1.883.138 1.46-.852l-.242-.56c-1.397-3.22-3.027-6.5-6.39-8.022Zm5.153-2.034c-1.031-.357-1.473 1.275-.45 1.632 2.786.97 4.698 3.062 6.31 5.455.604.896 2.068.05 1.458-.854-1.872-2.777-4.094-5.108-7.318-6.233Z" clip-rule="evenodd"></path><path fill="#000" fill-rule="evenodd" d="M143.152 128.274a8.601 8.601 0 0 1-3.614-2.781 1.671 1.671 0 0 1-.338-1.297c.076-.467.352-.889.728-1.173.377-.284.849-.424 1.305-.353.397.062.791.279 1.104.73l.065.09a5.695 5.695 0 0 0 2.086 1.751 4.7 4.7 0 0 0 2.582.454c1.738-.196 2.935-1.136 4.208-2.413.158-.161.316-.327.474-.496a.746.746 0 0 1 .394-.303.864.864 0 0 1 .97.332c.097.143.153.32.135.524-.117 1.323-.808 2.503-1.79 3.43-1.091 1.03-2.537 1.742-3.898 1.992-1.499.275-3.027.078-4.411-.487Zm5.119-20.408c1.595.971 4.026 3.233 2.31 5.638-2.021 2.12-4.929-.311-6.362-1.411-1.329-.852-2.823 1.34-1.59 2.335 10.358 7.671 14.561-6.308 6.449-7.702-.894-.154-1.225.84-.807 1.14Zm-18.56-8.923c.176-2.189 3.508-2.686 3.84-.52.296 1.94-.053 3.723-.927 5.47-.834 1.668-2.932.89-3.091-.63-.213-2.037.068-2.958.178-4.32Zm25.365-.969c.465-.609 1.136-1.024 1.939-.79 2.511.735 1.771 4.301.889 6.037-.479.942-2.028 1.181-2.728.351-1.14-1.353-1.687-4.056-.236-5.39.039-.068.083-.138.136-.208Zm-22.487-8.608.397-.07c1.227-.212 2.752-.416 3.62.57.461.524.619 1.497 0 1.998-1.088.88-2.292.54-3.596.614a14.3 14.3 0 0 0-3.143.536c-2.272.65-4.123 1.835-6.063 3.137-.254.17-.514-.155-.393-.393 1.12-2.195 3.29-3.997 5.464-5.096 1.161-.587 2.43-1.073 3.714-1.296Zm20.198-.983.304.062c3.304.69 7.596 2.07 9.16 5.317.06.459-.003.557-.054.621l-.017.022c-.043.055-.076.13-.275.193a8.562 8.562 0 0 1-.168-.042c-.717-.188-1.284-.447-1.833-.716l-.596-.293c-.691-.34-1.388-.666-2.127-.907a25.038 25.038 0 0 0-4.844-1.07 1.988 1.988 0 0 1-.972-.37 1.464 1.464 0 0 1-.544-.827c-.116-.467-.082-.82.168-1.242.188-.316.458-.535.767-.661a1.798 1.798 0 0 1 1.031-.087Z" clip-rule="evenodd"></path></svg>