<?xml version="1.0" encoding="UTF-8"?>
<svg version="1.1" xmlns="http://www.w3.org/2000/svg" width="512" height="512">
<path d="M0 0 C3.72476742 1.7151597 5.65321773 4.25967829 7.390625 7.96875 C11.43535529 12.66741871 16.34781909 13.08970897 22.25 14.375 C24.70728876 14.96226208 27.16300189 15.55615185 29.6171875 16.15625 C31.4748877 16.60871094 31.4748877 16.60871094 33.37011719 17.0703125 C54.98426511 22.60613946 75.39892892 31.45123136 95.1875 41.625 C96.21480225 42.1511792 97.24210449 42.6773584 98.30053711 43.21948242 C104.91488525 46.68881784 110.95803446 50.62080604 117 55 C119.02064648 56.35444546 121.04145463 57.7086498 123.0625 59.0625 C136.58747918 68.34450937 148.65929377 79.18821828 160 91 C160.99684047 92.00314958 161.99488501 93.00514129 163 94 C166.24900717 92.91699761 166.74706612 92.36840631 168.8125 89.8125 C182.46795224 73.76084789 198.31929923 61.31378614 216 50 C216.66080566 49.57654297 217.32161133 49.15308594 218.00244141 48.71679688 C231.27741297 40.28933105 245.42216159 33.84192045 260 28 C261.27496111 27.462765 262.549685 26.92496681 263.82421875 26.38671875 C277.89396897 20.56165251 292.64552458 16.32082709 307.56420898 13.27148438 C308.72380127 13.03236328 309.88339355 12.79324219 311.078125 12.546875 C312.6564209 12.24281738 312.6564209 12.24281738 314.26660156 11.93261719 C318.20068191 10.5903354 319.62845741 8.29446814 321.765625 4.875 C323.73929286 1.8770235 325.59520167 1.02786365 329 0 C333.82150372 -0.78506819 338.01538395 -1.05803441 342.41796875 1.2890625 C347.41994895 5.27971337 349.16235842 8.71768817 350 15 C350 15.99 350 16.98 350 18 C350.8971875 18.12375 351.794375 18.2475 352.71875 18.375 C371.3977093 21.46243129 387.07953949 30.57007296 398.40234375 45.8984375 C403.70270689 53.79259536 407.1132531 63.26507423 407.13422108 72.81123352 C407.13867892 73.75717188 407.14313676 74.70311024 407.14772969 75.67771339 C407.14745315 77.22423623 407.14745315 77.22423623 407.14717102 78.80200195 C407.15084771 79.90374441 407.1545244 81.00548687 407.1583125 82.14061546 C407.1693432 85.8398421 407.17319218 89.53904063 407.17700195 93.23828125 C407.18326711 95.88784451 407.18990135 98.53740478 407.19691467 101.18696594 C407.21665369 109.14348236 407.2267425 117.1 407.23564246 125.05653477 C407.24002997 128.80752711 407.24539562 132.55851804 407.25063133 136.30950928 C407.26764182 148.78604845 407.28213434 161.26258676 407.28938007 173.73913574 C407.29128983 176.97501629 407.29321018 180.21089683 407.29516602 183.44677734 C407.29564976 184.2509964 407.2961335 185.05521546 407.2966319 185.8838048 C407.30492608 198.9015662 407.33025344 211.91923553 407.36274669 224.93695676 C407.39586682 238.31539648 407.41383334 251.69378948 407.41702431 265.07227039 C407.41918494 272.57831852 407.42786769 280.08423243 407.45348549 287.59024048 C407.47526039 293.98489214 407.48320977 300.37937697 407.47351871 306.7740615 C407.46899335 310.03248426 407.47296708 313.2904937 407.49028015 316.54888344 C407.59787777 338.00679208 405.14739561 355.51696229 390 372 C384.65297593 377.307343 378.82533106 380.83243085 372 383.875 C371.36006104 384.16133301 370.72012207 384.44766602 370.06079102 384.74267578 C361.42385467 388.36563584 352.75818716 389.29692842 343.46411133 389.25537109 C341.96187515 389.26080177 341.96187515 389.26080177 340.42929077 389.26634216 C338.27140521 389.27319325 336.11350248 389.27574972 333.95560646 389.27439499 C330.52706527 389.2734219 327.09883092 389.28646533 323.67033386 389.30337524 C313.92795171 389.34940379 304.18560255 389.37423073 294.44311523 389.38085938 C288.46622768 389.38590442 282.48966217 389.41030384 276.51288414 389.44618607 C274.2505659 389.45591322 271.98820298 389.45835522 269.72587013 389.45301437 C245.25793557 389.3979641 229.36617805 393.93576595 211.63183594 411.35888672 C205.40530975 417.62081206 199.54783806 424.21822297 193.75 430.875 C190.69262182 434.35102333 187.41131686 437.33425425 183.87109375 440.30859375 C182.01347454 441.98781947 180.50029338 443.73504461 178.9375 445.6875 C175.31939924 449.9827854 172.00600155 452.61439047 166.3203125 453.34375 C159.64443901 453.56085158 155.13108583 452.75793772 149.95141602 448.19555664 C147.60992177 445.94229484 145.32997042 443.6401854 143.0625 441.3125 C142.28970703 440.53455078 141.51691406 439.75660156 140.72070312 438.95507812 C137.25033939 435.43777794 133.85790011 431.8880771 130.63671875 428.140625 C126.38071549 423.21175039 121.83367079 418.57514813 117.24951172 413.9543457 C116.25247169 412.94578014 115.25991471 411.93276234 114.27197266 410.9152832 C100.97225632 397.22050394 88.14981754 389.79631484 68.83227539 389.50170898 C65.57190559 389.47567748 62.31271764 389.47168923 59.05226326 389.48357964 C55.53119433 389.4963345 52.01089511 389.48480505 48.48985291 389.46754456 C42.27942271 389.44096245 36.06918454 389.4352442 29.85870361 389.43664551 C19.92493821 389.43888151 9.99141067 389.42448098 0.05773735 389.38105965 C-3.38863597 389.37130935 -6.83462584 389.37989226 -10.2809906 389.38975525 C-29.83566381 389.37004129 -47.27350479 387.14488987 -62.91015625 374.12890625 C-75.68471278 361.11557296 -81.32212632 344.68955832 -81.26742554 326.75494385 C-81.27195665 325.65386724 -81.27648776 324.55279064 -81.28115618 323.41834807 C-81.29377106 319.74532686 -81.29218167 316.07245448 -81.29052734 312.39941406 C-81.2965144 309.75910903 -81.30326425 307.11881547 -81.31088257 304.47851562 C-81.32744971 298.06046162 -81.33299017 291.64244436 -81.33410732 285.22437075 C-81.33505982 280.00396313 -81.33918017 274.78356756 -81.34550858 269.56316376 C-81.36310917 254.74105192 -81.37234928 239.91896897 -81.37084763 225.09684661 C-81.37076772 224.29886184 -81.3706878 223.50087707 -81.37060547 222.67871094 C-81.37052371 221.8797445 -81.37044195 221.08077806 -81.37035771 220.25760052 C-81.36954511 207.31445251 -81.38867924 194.37142095 -81.4168822 181.42830661 C-81.44565593 168.11753456 -81.45942004 154.80681923 -81.45769465 141.49601531 C-81.4570323 134.03139431 -81.46245619 126.56689542 -81.48405075 119.10230255 C-81.50232176 112.74616604 -81.5065616 106.39020699 -81.4930319 100.0340555 C-81.48653187 96.79586385 -81.48847913 93.55808023 -81.5037384 90.31990814 C-81.61322624 65.46777132 -81.61322624 65.46777132 -77 55 C-76.68899542 54.24145847 -76.37799084 53.48291695 -76.05756187 52.70138931 C-69.86728212 38.22230895 -57.12360978 28.95344667 -43.19042969 22.83984375 C-38.94982468 21.21393189 -34.5225128 20.22686749 -30.05273438 19.4543457 C-27.89860309 19.08327769 -27.89860309 19.08327769 -25 18 C-23.49257772 15.64607035 -23.49257772 15.64607035 -23 13 C-21.48618499 7.41052919 -19.20633885 3.98653603 -14.203125 0.88671875 C-9.67376315 -0.93626909 -4.77407803 -0.62075814 0 0 Z M9 45 C9 113.97 9 182.94 9 254 C25.27194299 259.2168576 25.27194299 259.2168576 41.5625 264.375 C63.17205044 271.69123793 86.24172718 280.89851883 105 294 C106.28157957 294.70612522 107.57279039 295.39518512 108.875 296.0625 C120.06797129 302.20544384 130.34588127 310.0865175 140.328125 318.00390625 C142.54027634 319.65655147 144.53104408 320.82109657 147 322 C147.16359608 296.86109262 147.2869978 271.72226514 147.3626852 246.58293247 C147.39876394 234.91000627 147.44794351 223.23741103 147.52807617 211.56469727 C147.59789491 201.38952582 147.64301915 191.21459409 147.65861946 181.03918976 C147.66773723 175.65235112 147.68913178 170.26619818 147.7401104 164.87957954 C147.78773522 159.8060815 147.80225837 154.73354951 147.79175377 149.65984917 C147.79367458 147.80107238 147.80753335 145.94226225 147.83443832 144.0836792 C148.18782216 131.29831254 148.18782216 131.29831254 141.77415562 120.61802578 C141.18868426 120.08407727 140.60321291 119.55012877 140 119 C139.06629481 117.94559847 138.14105452 116.88360799 137.2265625 115.8125 C117.94347473 94.96591862 96.36531513 78.91911861 71 66 C70.28215332 65.63100586 69.56430664 65.26201172 68.82470703 64.88183594 C57.37123926 59.10034342 45.42406244 54.95918788 33.25 51 C32.50476074 50.75621613 31.75952148 50.51243225 30.99169922 50.26126099 C28.83596672 49.56032112 26.67679448 48.87147254 24.515625 48.1875 C23.26040039 47.78917969 22.00517578 47.39085937 20.71191406 46.98046875 C16.33577669 45.73620669 16.33577669 45.73620669 9 45 Z M308.88671875 46.35546875 C307.89422119 46.64518555 306.90172363 46.93490234 305.87915039 47.23339844 C304.82590576 47.54825195 303.77266113 47.86310547 302.6875 48.1875 C301.59880615 48.51137695 300.5101123 48.83525391 299.38842773 49.16894531 C297.22173785 49.81719807 295.05609814 50.46897282 292.89160156 51.12451172 C291.19985929 51.6367194 289.50699793 52.14530472 287.81152344 52.64501953 C246.46917041 64.85137653 206.18983551 90.61805075 181 126 C179.46610926 129.06778148 179.86672482 132.27789131 179.87974548 135.64346313 C179.87889106 136.44146469 179.87803663 137.23946625 179.87715632 138.06164968 C179.87550201 140.75026937 179.88102209 143.43882741 179.88647461 146.12744141 C179.88675652 148.04889423 179.88659868 149.97034716 179.8860321 151.89179993 C179.88574427 157.12086294 179.89163871 162.34990319 179.89860606 167.5789609 C179.90484196 173.0389167 179.90544359 178.49887297 179.90663147 183.95883179 C179.90974409 194.30377429 179.91795654 204.64870626 179.92798096 214.99364412 C179.93914425 226.76855574 179.94465309 238.54346786 179.94967639 250.31838346 C179.96013921 274.54559481 179.97773731 298.77279682 180 323 C181.26113594 322.0605351 182.52137649 321.11986815 183.78125 320.17871094 C184.48314453 319.65500916 185.18503906 319.13130737 185.90820312 318.59173584 C187.80773235 317.14630451 189.66189832 315.66297451 191.5 314.140625 C199.63278708 307.40594885 207.99338095 301.56785175 217.06201172 296.16601562 C218.90379539 295.05788274 220.72137741 293.91887715 222.53515625 292.765625 C248.05165339 276.69994594 277.08050543 265.58251383 306.10595703 257.80859375 C308.8082787 257.05356681 311.49403579 256.25759296 314.18087769 255.44946289 C315.08288847 255.17832169 315.98489925 254.90718048 316.9142437 254.62782288 C317.94669307 254.31705055 317.94669307 254.31705055 319 254 C319.02334154 227.34040418 319.04098536 200.68080988 319.05181217 174.0212059 C319.05697245 161.64320281 319.06401007 149.26520606 319.07543945 136.88720703 C319.08539445 126.10084124 319.09185538 115.31448004 319.09408849 104.52810979 C319.09539421 98.81476222 319.09847132 93.10142778 319.10573006 87.38808441 C319.1125031 82.01362691 319.11461432 76.639188 319.11310768 71.26472664 C319.11338343 69.28941052 319.11538095 67.31409379 319.11920547 65.33878136 C319.12416273 62.64703481 319.12299071 59.95535894 319.12025452 57.26361084 C319.12316736 56.47761781 319.1260802 55.69162477 319.12908131 54.88181376 C319.11951744 51.41344523 318.92853482 48.3367394 318 45 C314.436763 45 312.23640208 45.37044633 308.88671875 46.35546875 Z M-38.8125 57.6875 C-53.43299746 73.14345446 -50.15051352 95.34301065 -50.14526367 115.12817383 C-50.14826243 117.40674901 -50.15166659 119.68532368 -50.15544128 121.96389771 C-50.16420694 128.10193347 -50.16661608 134.23995526 -50.16725707 140.37799668 C-50.16797116 144.22001872 -50.17011212 148.06203729 -50.17275429 151.90405846 C-50.18150479 164.63647917 -50.18617709 177.36888838 -50.18542381 190.10131136 C-50.18538386 190.7845168 -50.1853439 191.46772223 -50.18530273 192.17163086 C-50.18526185 192.85568285 -50.18522097 193.53973484 -50.18517885 194.24451568 C-50.18477176 205.34806837 -50.19436409 216.45158726 -50.2084411 227.55513016 C-50.22282996 238.99597611 -50.22952721 250.43679872 -50.22884732 261.87765521 C-50.22859297 268.28518519 -50.23141072 274.69267675 -50.24202538 281.10019875 C-50.25172951 287.12087627 -50.25176966 293.14147875 -50.24450874 299.16215897 C-50.24346619 301.36472496 -50.24580615 303.5672957 -50.2518692 305.76985359 C-50.79609179 328.31939766 -50.79609179 328.31939766 -40.6875 347.6875 C-34.30261937 353.18146706 -28.82217013 356.11056572 -20.28567505 356.13803101 C-19.36650803 356.14348434 -18.447341 356.14893768 -17.50032043 356.15455627 C-16.50393051 356.1555986 -15.50754059 356.15664093 -14.48095703 356.15771484 C-13.42167496 356.16279556 -12.36239288 356.16787628 -11.27101135 356.17311096 C-8.97170968 356.18380326 -6.67239768 356.1924279 -4.37308121 356.19923019 C-0.72237034 356.21105227 2.92822398 356.23051707 6.57888794 356.25234985 C16.95880189 356.31383111 27.33870512 356.36784922 37.71875 356.40136719 C44.07238781 356.42243323 50.42581472 356.4578372 56.77933121 356.50212479 C59.18957138 356.51619705 61.59984888 356.52498717 64.01012802 356.52817917 C96.46111501 356.57567697 96.46111501 356.57567697 110.4375 364.25 C111.23623535 364.68272217 112.0349707 365.11544434 112.85791016 365.5612793 C120.91975639 370.16381693 127.30748394 376.11173861 133.76318359 382.71630859 C136.31444358 385.3210331 138.89947094 387.8896345 141.48828125 390.45703125 C145.16510773 394.10723054 148.82957379 397.76912666 152.48046875 401.4453125 C153.27630371 402.24227539 154.07213867 403.03923828 154.89208984 403.86035156 C156.14194179 405.12902222 157.37766379 406.41231505 158.58056641 407.72558594 C159.94831596 409.25765284 159.94831596 409.25765284 162 411 C166.12493196 411.45553573 166.12493196 411.45553573 168.6796875 408.4921875 C169.75375005 407.29443154 170.81807382 406.08790427 171.875 404.875 C177.73073759 398.38688123 183.75184578 392.08586399 189.92144775 385.89727783 C191.34634998 384.46627273 192.76479908 383.02885127 194.18310547 381.59130859 C201.50516902 374.25607823 208.61168545 368.25438011 218 363.8125 C218.64066406 363.48314453 219.28132813 363.15378906 219.94140625 362.81445312 C233.74808107 356.2254992 249.23895256 356.57665187 264.17142677 356.61987495 C267.65822502 356.62910801 271.1444995 356.61862601 274.63127136 356.60325623 C284.53208787 356.56347546 294.43285696 356.56195747 304.33374023 356.56420898 C310.4212463 356.56426023 316.50846482 356.54503294 322.59589195 356.51487541 C326.01422095 356.50411962 329.43198576 356.51613334 332.85029602 356.52870178 C334.96115666 356.51979302 337.07201281 356.50971712 339.18286133 356.49829102 C340.58662773 356.51290627 340.58662773 356.51290627 342.01875305 356.52781677 C351.68497107 356.42406781 360.22227955 353.68098453 367.28125 346.92578125 C374.39203337 338.9584717 376.30107433 331.17610466 376.26742554 320.70294189 C376.27422221 319.15000211 376.27422221 319.15000211 376.28115618 317.5656898 C376.29381382 314.09745873 376.2921789 310.62938442 376.29052734 307.16113281 C376.29651176 304.67403969 376.30331711 302.18694843 376.31088257 299.69985962 C376.32672313 293.6453486 376.33299139 287.59089918 376.33410732 281.53637317 C376.33505866 276.61287383 376.33917325 271.68938731 376.34550858 266.76589203 C376.36311724 252.79625883 376.37234814 238.82665632 376.37084763 224.85701194 C376.37076772 224.10433472 376.3706878 223.3516575 376.37060547 222.57617188 C376.37048283 221.44577182 376.37048283 221.44577182 376.37035771 220.29253539 C376.36954512 208.08435096 376.38867686 195.87629 376.4168822 183.66814128 C376.44563772 171.12249657 376.459421 158.57691203 376.45769465 146.03123355 C376.45703162 138.99199378 376.46248535 131.95288342 376.48405075 124.9136734 C376.50420904 118.29147792 376.50356158 111.6695086 376.48901749 105.04728317 C376.48692748 102.61973802 376.49164162 100.1921758 376.5037384 97.76465988 C376.51920911 94.44445109 376.50986962 91.12518171 376.49447632 87.80499268 C376.50990701 86.37237307 376.50990701 86.37237307 376.52564943 84.91081166 C376.41781816 74.34769928 372.3711036 65.54073151 365 58 C362.71013387 56.30894823 360.60244816 55.22756989 358 54 C357.29875 53.566875 356.5975 53.13375 355.875 52.6875 C353.33418154 51.75586656 351.5943272 52.40883364 349 53 C348.99641747 54.66924373 348.99641747 54.66924373 348.99276257 56.37220955 C348.93399295 83.43786448 348.85812583 110.50343021 348.76428509 137.56898689 C348.71930126 150.65763672 348.67989252 163.74625919 348.65356445 176.83496094 C348.63060538 188.24179819 348.5972307 199.64854902 348.55129844 211.05531776 C348.52733812 217.09625974 348.50862772 223.13711597 348.50238609 229.1781044 C348.49634801 234.8629167 348.47639417 240.54750954 348.44572449 246.23224068 C348.43692381 248.31957921 348.43322587 250.40694641 348.43499184 252.49430275 C348.43664124 255.34322764 348.41997347 258.19148088 348.39872742 261.04031372 C348.40599878 262.28060182 348.40599878 262.28060182 348.41341704 263.54594624 C348.34062904 269.45611671 347.17488292 273.6891869 343 278.125 C336.44323504 282.2229781 329.05808319 284.01291989 321.64038086 285.95947266 C290.37624986 294.19021678 260.46733549 306.91221291 233 324 C232.04335449 324.58491211 232.04335449 324.58491211 231.06738281 325.18164062 C219.61654819 332.19430617 208.97275832 340.0971008 199.04296875 349.140625 C197.05970851 350.94565727 195.03653327 352.69304321 193 354.4375 C190.01255832 357.0226723 187.28856384 359.76664883 184.5625 362.625 C178.41698588 368.7915604 172.33303906 372.70725551 163.46484375 373.1171875 C152.44897499 372.59345364 144.81098007 364.99082105 137.4375 357.4375 C136.633125 356.633125 135.82875 355.82875 135 355 C134.34 355 133.68 355 133 355 C133 354.34 133 353.68 133 353 C131.10178011 351.22656431 131.10178011 351.22656431 128.63671875 349.37109375 C127.26265869 348.29964111 127.26265869 348.29964111 125.86083984 347.20654297 C124.9167627 346.47838379 123.97268555 345.75022461 123 345 C122.15775879 344.33758301 121.31551758 343.67516602 120.44775391 342.99267578 C109.71405936 334.5568041 99.02239562 326.49718625 87 320 C86.14680176 319.5364209 85.29360352 319.0728418 84.41455078 318.59521484 C57.21521696 303.90880041 29.19786327 292.55401961 -0.76318359 284.77539062 C-15.26463089 280.88783221 -15.26463089 280.88783221 -19.19397378 275.30298233 C-21.94228903 270.0223329 -22.57480154 265.70538104 -22.51898193 259.79980469 C-22.52648319 258.90683843 -22.53398444 258.01387217 -22.541713 257.09384632 C-22.56191578 254.11961581 -22.55390201 251.14615305 -22.54589844 248.171875 C-22.55463746 246.0327835 -22.56512439 243.89369854 -22.57722473 241.75462341 C-22.60506476 235.9597753 -22.60848984 230.16514072 -22.60750484 224.37023544 C-22.61063563 218.30968199 -22.63625735 212.24922445 -22.65948486 206.1887207 C-22.70003556 194.71775658 -22.72038344 183.2468493 -22.73345876 171.77582455 C-22.7493319 158.71416785 -22.78774892 145.65260783 -22.82805204 132.59100723 C-22.91043832 105.72737061 -22.96453843 78.86373666 -23 52 C-28.35632799 52 -34.2999654 54.97997924 -38.8125 57.6875 Z " fill="#CDDEC3" transform="translate(93,29)"/>
<path d="M0 0 C3.93924471 -0.16762743 7.24367855 -0.01733299 11.05915833 0.98986816 C16.4309192 2.2239733 21.62327682 2.29252352 27.1159668 2.28710938 C28.72745102 2.29735893 28.72745102 2.29735893 30.37149048 2.30781555 C32.68928139 2.32133939 35.0071016 2.33043369 37.32492638 2.33552551 C40.99453874 2.34385284 44.66390682 2.36439126 48.33345032 2.38806152 C57.44132317 2.44431395 66.54925522 2.47969666 75.65722656 2.51568604 C83.36788351 2.54694032 91.07842042 2.58612771 98.78898048 2.63594055 C102.40179177 2.65598684 106.01450985 2.66432226 109.62736511 2.67224121 C111.84231913 2.68521331 114.05727003 2.69873358 116.2722168 2.71289062 C117.77554817 2.71141777 117.77554817 2.71141777 119.30924988 2.70991516 C124.2713347 2.75409465 128.34917951 3.03934834 133 5 C133 5.66 133 6.32 133 7 C134.98 7.495 134.98 7.495 137 8 C136.34 8.33 135.68 8.66 135 9 C133.28616539 8.40312828 131.58931972 7.75745378 129.90014648 7.09399414 C120.43221014 4.08463571 110.90548808 4.44764635 101.05226326 4.48357964 C97.53119433 4.4963345 94.01089511 4.48480505 90.48985291 4.46754456 C84.27942271 4.44096245 78.06918454 4.4352442 71.85870361 4.43664551 C61.92493821 4.43888151 51.99141067 4.42448098 42.05773735 4.38105965 C38.61136403 4.37130935 35.16537416 4.37989226 31.7190094 4.38975525 C20.75619376 4.37741309 10.60218322 4.09980114 0 1 C0 0.67 0 0.34 0 0 Z " fill="#3D423C" transform="translate(51,414)"/>
<path d="M0 0 C0.66 0.33 1.32 0.66 2 1 C1.57589844 1.4125 1.15179688 1.825 0.71484375 2.25 C-2.44388984 5.36013769 -5.48891907 8.50903208 -8.375 11.875 C-15.35844208 19.95204599 -23.08081763 28.05387842 -32 34 C-30.68623083 31.09456128 -29.27943508 29.03338941 -27.01904297 26.79199219 C-26.41857147 26.19167175 -25.81809998 25.59135132 -25.19943237 24.97283936 C-24.55354156 24.33727112 -23.90765076 23.70170288 -23.2421875 23.046875 C-22.57913605 22.38665344 -21.91608459 21.72643188 -21.23294067 21.04620361 C-19.11828168 18.94272176 -16.99676788 16.84630858 -14.875 14.75 C-13.43834443 13.32337739 -12.00214102 11.89629928 -10.56640625 10.46875 C-7.04949196 6.97386339 -3.52641453 3.48529938 0 0 Z " fill="#879281" transform="translate(295,402)"/>
<path d="M0 0 C4.73224376 -0.04963625 9.46433415 -0.08583097 14.19677734 -0.10986328 C15.80487713 -0.11988763 17.41295885 -0.13351066 19.02099609 -0.15087891 C21.33956376 -0.17528488 23.65788929 -0.18651886 25.9765625 -0.1953125 C26.68930328 -0.20563507 27.40204407 -0.21595764 28.13638306 -0.22659302 C32.47509083 -0.2275565 35.96715817 0.40562067 40 2 C40 2.66 40 3.32 40 4 C41.32 4.33 42.64 4.66 44 5 C42 6 42 6 39.49926758 5.24902344 C38.45407959 4.87293945 37.4088916 4.49685547 36.33203125 4.109375 C28.74189573 1.67936054 21.61018306 1.33816339 13.6875 1.25 C12.34957257 1.22174422 11.01167962 1.191804 9.67382812 1.16015625 C6.4491608 1.09030786 3.2251807 1.03719266 0 1 C0 0.67 0 0.34 0 0 Z " fill="#4B5149" transform="translate(144,417)"/>
<path d="M0 0 C0.66 0.33 1.32 0.66 2 1 C-1.75 5.875 -1.75 5.875 -4 7 C-4.66 7.99 -5.32 8.98 -6 10 C-5.58578031 5.16743695 -3.53586014 3.17320782 0 0 Z " fill="#8A9584" transform="translate(77,31)"/>
<path d="M0 0 C-2.31 1.32 -4.62 2.64 -7 4 C-7.99 3.34 -8.98 2.68 -10 2 C-3.375 -1.125 -3.375 -1.125 0 0 Z " fill="#99A693" transform="translate(370,297)"/>
<path d="M0 0 C2.97 0.495 2.97 0.495 6 1 C2.46588679 3.12046792 -0.94393835 3.53199289 -5 4 C-2 2 -2 2 0 2 C0 1.34 0 0.68 0 0 Z " fill="#8C9786" transform="translate(397,74)"/>
</svg>
